#!OML:ASF E:\pregnant2\Project 1\Capture day 1\Session 1\pregnant2.ASF
:FULLY-SPECIFIED
:DEGREES
1298
root -5.54543 17.0701 17.3646 -521.506 74.1987 527.018
lowerback -19.6444 -1.14694 -1.48881
upperback -16.9131 0.674506 -1.60791
thorax -7.56545 1.27259 -0.940729
lowerneck -16.0997 -6.7933 -5.95415
upperneck 33.3317 -8.0399 2.30093
head 14.5334 -3.51307 0.679242
rclavicle -3.45637e-014 1.75924e-014
rhumerus -66.5423 22.325 -102.641
rradius 84.9634
rwrist -21.1452
rhand 2.1551 -10.8964
rfingers 7.12502
rthumb 207.653 141.116
lclavicle -3.45637e-014 1.75924e-014
lhumerus -64.7871 -40.6554 120.797
lradius 63.3075
lwrist 14.5513
lhand -18.6732 28.4001
lfingers 7.12502
lthumb 187.621 -121.757
rfemur -37.2706 7.24778 14.0706
rtibia 42.2386
rfoot -22.3045 -16.01
rtoes -4.43509
lfemur -53.666 -9.17318 -16.3721
ltibia 28.7852
lfoot -7.03286 11.1746
ltoes -17.5559
1299
root -5.49355 17.0745 17.3024 -521.908 74.5072 526.409
lowerback -19.7676 -1.09716 -1.50229
upperback -16.9728 0.754025 -1.67849
thorax -7.57341 1.31519 -1.00037
lowerneck -16.1759 -6.75995 -5.89112
upperneck 33.3074 -7.99069 2.24151
head 14.5296 -3.49425 0.65045
rclavicle -8.89561e-015 -1.63997e-014
rhumerus -66.4397 22.4558 -102.779
rradius 84.71
rwrist -20.0574
rhand 1.62715 -10.5122
rfingers 7.12502
rthumb 207.148 141.42
lclavicle -8.89561e-015 -1.63997e-014
lhumerus -64.928 -40.8409 120.944
lradius 63.722
lwrist 15.0294
lhand -18.6394 28.4179
lfingers 7.12502
lthumb 187.653 -121.741
rfemur -38.0344 6.81372 13.8943
rtibia 43.5791
rfoot -21.5941 -15.7142
rtoes -4.76132
lfemur -53.6199 -9.21405 -16.6517
ltibia 28.8856
lfoot -7.41127 11.4163
ltoes -17.1073
1300
root -5.44315 17.0782 17.2419 -522.196 74.8465 525.88
lowerback -19.921 -1.04319 -1.49929
upperback -17.0364 0.839281 -1.72989
thorax -7.57067 1.36087 -1.04723
lowerneck -16.2607 -6.718 -5.81878
upperneck 33.2768 -7.92407 2.16038
head 14.5223 -3.47027 0.614079
rclavicle -2.71341e-014 1.22253e-014
rhumerus -66.3328 22.6364 -102.944
rradius 84.4208
rwrist -18.8086
rhand 1.05036 -10.2172
rfingers 7.12502
rthumb 206.596 141.631
lclavicle -2.71341e-014 1.22253e-014
lhumerus -65.0998 -40.9973 121.074
lradius 64.2132
lwrist 15.5512
lhand -18.582 28.4523
lfingers 7.12502
lthumb 187.709 -121.708
rfemur -38.9227 6.36233 13.7624
rtibia 45.0111
rfoot -20.7709 -15.4172
rtoes -4.96409
lfemur -53.6342 -9.22429 -16.8932
ltibia 29.0141
lfoot -7.79353 11.6869
ltoes -16.7734
1301
root -5.39417 17.0807 17.1832 -522.434 75.2161 525.374
lowerback -20.0988 -0.989444 -1.49527
upperback -17.0996 0.925307 -1.76649
thorax -7.55554 1.40796 -1.07779
lowerneck -16.3518 -6.66634 -5.7356
upperneck 33.2387 -7.84051 2.0618
head 14.5106 -3.44057 0.571643
rclavicle -4.74101e-014 9.74045e-015
rhumerus -66.2207 22.8716 -103.148
rradius 84.0704
rwrist -17.3447
rhand 0.370548 -9.99098
rfingers 7.12502
rthumb 205.945 141.76
lclavicle -4.74101e-014 9.74045e-015
lhumerus -65.3093 -41.1324 121.194
lradius 64.774
lwrist 16.1151
lhand -18.5195 28.484
lfingers 7.12502
lthumb 187.769 -121.679
rfemur -39.9229 5.89079 13.6613
rtibia 46.5299
rfoot -19.8528 -15.1165
rtoes -4.96424
lfemur -53.6953 -9.18974 -17.1319
ltibia 29.1693
lfoot -8.179 11.9603
ltoes -16.5747
1302
root -5.34645 17.0816 17.1264 -522.668 75.6059 524.857
lowerback -20.2907 -0.938999 -1.49763
upperback -17.161 1.00814 -1.79408
thorax -7.53144 1.45458 -1.09477
lowerneck -16.4493 -6.60687 -5.64164
upperneck 33.2003 -7.74484 1.95194
head 14.4987 -3.40601 0.524808
rclavicle 6.53505e-015 -2.98177e-016
rhumerus -66.1209 23.1744 -103.416
rradius 83.6453
rwrist -15.6336
rhand -0.497622 -9.84504
rfingers 7.12502
rthumb 205.114 141.787
lclavicle 6.53505e-015 -2.98177e-016
lhumerus -65.5692 -41.2624 121.319
lradius 65.3928
lwrist 16.7151
lhand -18.439 28.4826
lfingers 7.12502
lthumb 187.847 -121.683
rfemur -41.0141 5.39732 13.5869
rtibia 48.1192
rfoot -18.8466 -14.8296
rtoes -4.75597
lfemur -53.7889 -9.10213 -17.393
ltibia 29.3477
lfoot -8.56637 12.2084
ltoes -16.5064
1303
root -5.29986 17.0807 17.0712 -522.907 76.0016 524.322
lowerback -20.4937 -0.897696 -1.50296
upperback -17.2207 1.07958 -1.81089
thorax -7.50022 1.49633 -1.09927
lowerneck -16.5503 -6.53763 -5.54207
upperneck 33.1639 -7.63413 1.83565
head 14.4873 -3.3652 0.477059
rclavicle 3.06874e-014 -2.08724e-014
rhumerus -66.0367 23.5571 -103.755
rradius 83.1062
rwrist -13.6143
rhand -1.56788 -9.76706
rfingers 7.12502
rthumb 204.088 141.725
lclavicle 3.06874e-014 -2.08724e-014
lhumerus -65.8697 -41.3805 121.452
lradius 66.0431
lwrist 17.3371
lhand -18.3539 28.4425
lfingers 7.12502
lthumb 187.929 -121.726
rfemur -42.1766 4.89579 13.5345
rtibia 49.7541
rfoot -17.7817 -14.5671
rtoes -4.2104
lfemur -53.9086 -8.96099 -17.6887
ltibia 29.5436
lfoot -8.9459 12.4097
ltoes -16.5745
1304
root -5.25392 17.079 17.0176 -523.159 76.3991 523.77
lowerback -20.7018 -0.863205 -1.50942
upperback -17.2784 1.14202 -1.82458
thorax -7.46455 1.53366 -1.10048
lowerneck -16.6503 -6.45968 -5.42256
upperneck 33.1319 -7.5144 1.71215
head 14.4761 -3.31887 0.42478
rclavicle 2.50966e-015 4.96962e-016
rhumerus -65.9612 24.0054 -104.165
rradius 82.4097
rwrist -11.2445
rhand -2.69593 -9.6948
rfingers 7.12502
rthumb 203.006 141.658
lclavicle 2.50966e-015 4.96962e-016
lhumerus -66.2215 -41.5085 121.601
lradius 66.702
lwrist 17.9734
lhand -18.2407 28.3533
lfingers 7.12502
lthumb 188.038 -121.82
rfemur -43.3835 4.40711 13.5009
rtibia 51.4002
rfoot -16.6593 -14.3549
rtoes -3.32182
lfemur -54.0429 -8.7863 -17.9989
ltibia 29.7504
lfoot -9.3371 12.568
ltoes -16.6136
1305
root -5.20817 17.077 16.9654 -523.419 76.7885 523.214
lowerback -20.9123 -0.839203 -1.51105
upperback -17.3332 1.18947 -1.83224
thorax -7.42468 1.56294 -1.09944
lowerneck -16.7521 -6.37183 -5.28919
upperneck 33.113 -7.38276 1.58486
head 14.4702 -3.26572 0.37077
rclavicle 1.20265e-014 2.78299e-015
rhumerus -65.8923 24.5276 -104.637
rradius 81.5262
rwrist -8.56145
rhand -3.81827 -9.62043
rfingers 7.12502
rthumb 201.928 141.602
lclavicle 1.20265e-014 2.78299e-015
lhumerus -66.6084 -41.6372 121.764
lradius 67.3317
lwrist 18.5989
lhand -18.1126 28.2342
lfingers 7.12502
lthumb 188.162 -121.943
rfemur -44.6072 3.93502 13.4912
rtibia 53.0239
rfoot -15.49 -14.209
rtoes -2.05328
lfemur -54.1786 -8.59572 -18.3132
ltibia 29.9587
lfoot -9.73343 12.694
ltoes -16.6067
1306
root -5.16224 17.0752 16.9143 -523.677 77.1686 522.673
lowerback -21.119 -0.821878 -1.50395
upperback -17.3845 1.22583 -1.8378
thorax -7.38284 1.58539 -1.10223
lowerneck -16.8465 -6.27522 -5.13035
upperneck 33.1058 -7.24445 1.45225
head 14.4664 -3.20674 0.311837
rclavicle 7.05686e-015 -8.24956e-015
rhumerus -65.8328 25.1185 -105.166
rradius 80.4543
rwrist -5.6817
rhand -4.76569 -9.49534
rfingers 7.12502
rthumb 201.019 141.624
lclavicle 7.05686e-015 -8.24956e-015
lhumerus -67.0252 -41.7738 121.944
lradius 67.8912
lwrist 19.1861
lhand -17.9616 28.112
lfingers 7.12502
lthumb 188.307 -122.071
rfemur -45.8204 3.48841 13.5098
rtibia 54.5928
rfoot -14.2858 -14.144
rtoes -0.405723
lfemur -54.2995 -8.41022 -18.6142
ltibia 30.1574
lfoot -10.1234 12.8173
ltoes -16.5585
1307
root -5.11593 17.0742 16.8643 -523.959 77.5333 522.134
lowerback -21.3116 -0.810478 -1.48692
upperback -17.4313 1.251 -1.84423
thorax -7.34289 1.60034 -1.11306
lowerneck -16.9328 -6.17244 -4.95871
upperneck 33.1178 -7.10255 1.3249
head 14.4695 -3.14303 0.253802
rclavicle 3.1408e-014 1.0138e-014
rhumerus -65.7563 25.7329 -105.708
rradius 79.1859
rwrist -2.74533
rhand -5.45754 -9.26164
rfingers 7.12502
rthumb 200.354 141.785
lclavicle 3.1408e-014 1.0138e-014
lhumerus -67.4649 -41.921 122.144
lradius 68.3482
lwrist 19.7206
lhand -17.772 28.0157
lfingers 7.12502
lthumb 188.49 -122.175
rfemur -46.9936 3.0636 13.5548
rtibia 56.0814
rfoot -13.0953 -14.1779
rtoes 1.46328
lfemur -54.3874 -8.26273 -18.8854
ltibia 30.3342
lfoot -10.4948 12.9667
ltoes -16.4523
1308
root -5.06904 17.0744 16.815 -524.273 77.875 521.603
lowerback -21.473 -0.802129 -1.45659
upperback -17.4725 1.26693 -1.85591
thorax -7.31162 1.60777 -1.13866
lowerneck -17.0071 -6.06732 -4.77412
upperneck 33.1519 -6.96363 1.20539
head 14.4803 -3.07686 0.196598
rclavicle 4.62174e-015 1.39149e-014
rhumerus -65.676 26.3571 -106.27
rradius 77.7706
rwrist 0.017625
rhand -5.96431 -8.97435
rfingers 7.12502
rthumb 199.867 142.021
lclavicle 4.62174e-015 1.39149e-014
lhumerus -67.9266 -42.0835 122.379
lradius 68.6744
lwrist 20.1898
lhand -17.5334 27.9872
lfingers 7.12502
lthumb 188.721 -122.213
rfemur -48.0953 2.65404 13.631
rtibia 57.4689
rfoot -12.0139 -14.3264
rtoes 3.22602
lfemur -54.4187 -8.16671 -19.1221
ltibia 30.4764
lfoot -10.838 13.1484
ltoes -16.2814
1309
root -5.0215 17.076 16.7664 -524.652 78.1939 521.061
lowerback -21.5844 -0.793749 -1.41329
upperback -17.5086 1.27639 -1.87858
thorax -7.29891 1.60845 -1.18527
lowerneck -17.063 -5.96281 -4.58192
upperneck 33.2088 -6.83339 1.10241
head 14.4986 -3.01002 0.143803
rclavicle -5.62064e-014 3.38928e-014
rhumerus -65.6048 26.9682 -106.867
rradius 76.2562
rwrist 2.41809
rhand -6.37605 -8.69844
rfingers 7.12502
rthumb 199.471 142.256
lclavicle -5.62064e-014 3.38928e-014
lhumerus -68.411 -42.2632 122.652
lradius 68.8497
lwrist 20.5701
lhand -17.2469 28.0517
lfingers 7.12502
lthumb 188.997 -122.16
rfemur -49.1012 2.25756 13.7333
rtibia 58.7388
rfoot -11.1548 -14.5654
rtoes 4.67375
lfemur -54.3726 -8.1294 -19.3272
ltibia 30.5746
lfoot -11.1442 13.3696
ltoes -16.0488
